# xmcd
#
# Track frame offsets:
#	150
#	13389
#	29184
#	45724
#	62310
#
# Disc length: 1029 seconds
#
# Revision: 1
# Processed by: cddbd v1.4PL0 Copyright (c) Steve Scherf et al.
# Submitted via: EasyCDDAExtractor 5.0.7
#
DISCID=40040305
DTITLE=Eleven Hundred Springs - Broken Dreams
DYEAR=2003
DGENRE=Country
TTITLE0=Depend On You
TTITLE1=Just Me And You
TTITLE2=Broken Dreams
TTITLE3=We Don't Need To Belong
TTITLE4=Illegal Smile
EXTD=
EXTT0=
EXTT1=
EXTT2=
EXTT3=
EXTT4=
PLAYORDER=
